<?xml version="1.0" encoding="utf-8"?>
<!-- Generator: Adobe Illustrator 16.0.0, SVG Export Plug-In . SVG Version: 6.00 Build 0)  -->
<!DOCTYPE svg PUBLIC "-//W3C//DTD SVG 1.1//EN" "http://www.w3.org/Graphics/SVG/1.1/DTD/svg11.dtd">
<svg version="1.1" xmlns="http://www.w3.org/2000/svg" xmlns:xlink="http://www.w3.org/1999/xlink" x="0px" y="0px"
	 width="270px" height="70px" viewBox="0 0 270 70" xml:space="preserve">
<style type="text/css">
<![CDATA[
	.st0{fill:#FFFFFF;}
]]>
</style>
<rect width="270" height="50"/>
<rect x="2" y="2" class="st0" width="135" height="46"/>
<rect x="51.8" y="10.3" width="4.5" height="31.5"/>
<rect x="62" y="10.3" width="35" height="4.3"/>
<rect x="77" y="14.7" width="4" height="27.2"/>
<path d="M45.7,17c0,0-4.7-7.7-16.8-7.7S8.5,17.5,8.5,26s6.7,15.8,20,15.8s17.2-7.2,17.2-7.2l-3.8-2.2c0,0-2.8,5-13.5,5
	S13,32.2,13,26c0-6.2,6-12.2,15.5-12.2S42,19,42,19L45.7,17z"/>
<polygon points="95.7,14.7 108.7,28.2 108.7,41.8 113,41.8 113,28.2 129.7,10.3 124.3,10.3 110.8,24.3 97,10.3 "/>
<path class="st0" d="M170,11.5h-6.2l-16.5,30.3h5.7l3.7-6.5h19.7l3.7,6.5h5.5L170,11.5z M158.8,30.2l8.1-13.3l7.1,13.3H158.8z"/>
<path class="st0" d="M216.5,30.2c0,0,7.3-1.7,7.3-9.5c0-9.2-9-9.2-9-9.2h-25v30.3h5.2V30.2h15.7l8.2,11.7h5.7L216.5,30.2z M195,26
	V15.8h19.2c0,0,5.2,0,5.2,5c0,5.3-4.7,5.2-4.7,5.2H195z"/>
<polygon class="st0" points="227.5,11.5 260.8,11.5 260.8,16.5 247,16.5 247,41.8 241.5,41.8 241.5,16.5 227.5,16.5 "/>
<g>
	<path d="M12.9,54.9c1.3,0,3.7,0.6,3.7,2.1v1h-1.3v-0.6c0-0.8-1.4-1.2-2.4-1.2c-2,0-3.5,1.5-3.5,3.7c0,2.2,1.6,3.9,3.6,3.9
		c2,0,3.1-1.3,3.1-1.3l0.8,1c0,0-1.4,1.7-3.9,1.7c-3,0-5-2.3-5-5.2C8,57.1,10.1,54.9,12.9,54.9z"/>
	<path d="M27.7,54.9c2.9,0,5.1,2.2,5.1,5c0,2.9-2.2,5.2-5.1,5.2c-2.9,0-5.1-2.3-5.1-5.2C22.6,57.1,24.8,54.9,27.7,54.9z M27.7,63.9
		c2,0,3.6-1.7,3.6-3.9c0-2.1-1.6-3.7-3.6-3.7c-2,0-3.6,1.6-3.6,3.7C24.1,62.2,25.7,63.9,27.7,63.9z"/>
	<path d="M43.7,54.9c2.9,0,5.1,2.2,5.1,5c0,2.9-2.2,5.2-5.1,5.2c-2.9,0-5.1-2.3-5.1-5.2C38.6,57.1,40.8,54.9,43.7,54.9z M43.7,63.9
		c2,0,3.6-1.7,3.6-3.9c0-2.1-1.6-3.7-3.6-3.7c-2,0-3.6,1.6-3.6,3.7C40.1,62.2,41.7,63.9,43.7,63.9z"/>
	<path d="M55.6,56.3h-0.9v-1.2H59c1.8,0,3.1,1.2,3.1,3.1s-1.3,3.1-3.1,3.1h-2V65h-1.4V56.3z M58.8,60.1c1.2,0,1.9-0.7,1.9-1.9
		s-0.7-1.9-1.9-1.9H57v3.8H58.8z"/>
	<path d="M68.8,56.3h-0.9v-1.2h5.8c0.6,0,0.9,0.3,0.9,0.9v1.2h-1.3v-0.6c0-0.2-0.1-0.3-0.3-0.3h-2.8v3.1h3.5v1.2h-3.5v2.9
		c0,0.2,0.1,0.3,0.3,0.3h2.9c0.2,0,0.3-0.1,0.3-0.3v-0.6H75v1.2c0,0.6-0.3,0.9-0.9,0.9h-4.4c-0.6,0-0.9-0.3-0.9-0.9V56.3z"/>
	<path d="M81.6,56.3h-0.9v-1.2H85c1.7,0,3,1.1,3,2.9c0,1.7-1.1,2.5-1.8,2.6v0c0,0,0.3,0.1,0.4,0.4l1.2,2.4c0.1,0.3,0.4,0.3,0.7,0.3
		h0.2V65H88c-0.8,0-1.1-0.1-1.4-0.7l-1.3-2.7c-0.3-0.5-0.4-0.5-1-0.5H83V65h-1.4V56.3z M84.9,59.9c1.1,0,1.7-0.7,1.7-1.8
		s-0.6-1.8-1.7-1.8H83v3.5H84.9z"/>
	<path d="M94,63.8h0.2c0.3,0,0.4-0.1,0.5-0.3l3.1-8.4h1.5l3.1,8.4c0.1,0.3,0.2,0.3,0.5,0.3h0.2V65h-0.8c-0.7,0-0.9-0.2-1.1-0.8
		l-0.7-2h-3.6l-0.7,2c-0.2,0.6-0.5,0.8-1.2,0.8H94V63.8z M100,61l-1.1-3c-0.2-0.5-0.4-1.4-0.4-1.4h0c0,0-0.2,0.9-0.4,1.4l-1.1,3H100
		z"/>
	<path d="M110.6,56.3h-2c-0.2,0-0.3,0.1-0.3,0.3v0.6h-1.2V56c0-0.6,0.2-0.8,0.8-0.8h6.8c0.6,0,0.8,0.2,0.8,0.8v1.3h-1.2v-0.6
		c0-0.2-0.1-0.3-0.3-0.3h-2V65h-1.4V56.3z"/>
	<path d="M121.3,63.8h1v-7.5h-1v-1.2h3.3v1.2h-1v7.5h1V65h-3.3V63.8z"/>
	<path d="M130.8,56.6c-0.1-0.3-0.2-0.3-0.5-0.3h-0.2v-1.2h0.8c0.7,0,0.9,0.2,1.2,0.8l2.2,6.1c0.2,0.5,0.4,1.4,0.4,1.4h0
		c0,0,0.2-0.8,0.4-1.4l2.2-6.1c0.2-0.7,0.5-0.8,1.2-0.8h0.8v1.2H139c-0.3,0-0.4,0.1-0.5,0.3l-3.1,8.4h-1.5L130.8,56.6z"/>
	<path d="M145.7,56.3h-0.9v-1.2h5.8c0.6,0,0.9,0.3,0.9,0.9v1.2h-1.3v-0.6c0-0.2-0.1-0.3-0.3-0.3h-2.8v3.1h3.5v1.2h-3.5v2.9
		c0,0.2,0.1,0.3,0.3,0.3h2.9c0.2,0,0.3-0.1,0.3-0.3v-0.6h1.3v1.2c0,0.6-0.3,0.9-0.9,0.9h-4.4c-0.6,0-0.9-0.3-0.9-0.9V56.3z"/>
	<path d="M179.9,54.9c2.4,0,3.5,1.2,3.5,1.2l-0.8,1c0,0-1.1-1-2.7-1c-2,0-3.6,1.6-3.6,3.8c0,2.3,1.6,3.8,3.6,3.8
		c1.8,0,2.8-1.2,2.8-1.2v-1c0-0.2-0.1-0.3-0.3-0.3h-0.6v-1.2h1.3c0.6,0,0.9,0.3,0.9,0.9v4h-1.2v-0.6c0-0.2,0-0.4,0-0.4h0
		c0,0-1.1,1.2-3.1,1.2c-2.6,0-4.8-2.1-4.8-5.2C174.9,57.2,177.1,54.9,179.9,54.9z"/>
	<path d="M189.8,63.8h0.2c0.3,0,0.4-0.1,0.5-0.3l3.1-8.4h1.5l3.1,8.4c0.1,0.3,0.2,0.3,0.5,0.3h0.2V65H198c-0.7,0-0.9-0.2-1.1-0.8
		l-0.7-2h-3.6l-0.7,2c-0.2,0.6-0.5,0.8-1.2,0.8h-0.8V63.8z M195.8,61l-1.1-3c-0.2-0.5-0.4-1.4-0.4-1.4h0c0,0-0.2,0.9-0.4,1.4l-1.1,3
		H195.8z"/>
	<path d="M205.3,56.6c0-0.2-0.1-0.3-0.3-0.3h-0.6v-1.2h1.4c0.6,0,0.9,0.3,0.9,0.9v7.5c0,0.2,0.1,0.3,0.3,0.3h2.7
		c0.2,0,0.3-0.1,0.3-0.3v-0.6h1.3v1.2c0,0.6-0.3,0.9-0.9,0.9h-4.2c-0.6,0-0.9-0.3-0.9-0.9V56.6z"/>
	<path d="M217.4,56.6c0-0.2-0.1-0.3-0.3-0.3h-0.6v-1.2h1.4c0.6,0,0.9,0.3,0.9,0.9v7.5c0,0.2,0.1,0.3,0.3,0.3h2.7
		c0.2,0,0.3-0.1,0.3-0.3v-0.6h1.3v1.2c0,0.6-0.3,0.9-0.9,0.9h-4.2c-0.6,0-0.9-0.3-0.9-0.9V56.6z"/>
	<path d="M229.4,56.3h-0.9v-1.2h5.8c0.6,0,0.9,0.3,0.9,0.9v1.2H234v-0.6c0-0.2-0.1-0.3-0.3-0.3h-2.8v3.1h3.5v1.2h-3.5v2.9
		c0,0.2,0.1,0.3,0.3,0.3h2.9c0.2,0,0.3-0.1,0.3-0.3v-0.6h1.3v1.2c0,0.6-0.3,0.9-0.9,0.9h-4.4c-0.6,0-0.9-0.3-0.9-0.9V56.3z"/>
	<path d="M242.3,56.3h-0.9v-1.2h4.3c1.7,0,3,1.1,3,2.9c0,1.7-1.1,2.5-1.8,2.6v0c0,0,0.3,0.1,0.4,0.4l1.2,2.4
		c0.1,0.3,0.4,0.3,0.7,0.3h0.2V65h-0.7c-0.8,0-1.1-0.1-1.4-0.7l-1.3-2.7c-0.3-0.5-0.4-0.5-1-0.5h-1.3V65h-1.4V56.3z M245.5,59.9
		c1.1,0,1.7-0.7,1.7-1.8s-0.6-1.8-1.7-1.8h-1.8v3.5H245.5z"/>
	<path d="M257.5,60.7l-2.5-4c-0.2-0.3-0.3-0.3-0.6-0.3h-0.3v-1.2h0.6c0.7,0,0.9,0.1,1.3,0.8l1.5,2.5c0.3,0.5,0.6,1.1,0.6,1.1h0
		c0,0,0.3-0.6,0.6-1.1l1.5-2.5c0.4-0.7,0.7-0.8,1.3-0.8h0.6v1.2H262c-0.3,0-0.4,0.1-0.6,0.3l-2.5,4V65h-1.4V60.7z"/>
</g>
</svg>
