<?xml version="1.0" encoding="utf-8"?>
<!-- Generator: Adobe Illustrator 16.0.0, SVG Export Plug-In . SVG Version: 6.00 Build 0)  -->
<!DOCTYPE svg PUBLIC "-//W3C//DTD SVG 1.1//EN" "http://www.w3.org/Graphics/SVG/1.1/DTD/svg11.dtd">
<svg version="1.1" id="Layer_1" xmlns="http://www.w3.org/2000/svg" xmlns:xlink="http://www.w3.org/1999/xlink" x="0px" y="0px"
	 width="270px" height="70px" viewBox="0 0 270 70" style="enable-background:new 0 0 270 70;" xml:space="preserve">
<style type="text/css">
<![CDATA[
	.st0{fill:#FFFFFF;}
]]>
</style>
<rect y="0.1" width="270" height="50"/>
<rect x="2" y="2.1" class="st0" width="135" height="46"/>
<rect x="51.8" y="10.4" width="4.5" height="31.5"/>
<rect x="62" y="10.4" width="35" height="4.3"/>
<rect x="77" y="14.8" width="4" height="27.2"/>
<path d="M45.7,17.1c0,0-4.7-7.7-16.8-7.7S8.5,17.6,8.5,26.1s6.7,15.8,20,15.8s17.2-7.2,17.2-7.2l-3.8-2.2c0,0-2.8,5-13.5,5
	S13,32.3,13,26.1c0-6.2,6-12.2,15.5-12.2S42,19.1,42,19.1L45.7,17.1z"/>
<polygon points="95.7,14.8 108.7,28.3 108.7,41.9 113,41.9 113,28.3 129.7,10.4 124.3,10.4 110.8,24.4 97,10.4 "/>
<path class="st0" d="M170,11.6h-6.2l-16.5,30.3h5.7l3.7-6.5h19.7l3.7,6.5h5.5L170,11.6z M158.8,30.3l8.1-13.3l7.1,13.3H158.8z"/>
<path class="st0" d="M216.5,30.3c0,0,7.3-1.7,7.3-9.5c0-9.2-9-9.2-9-9.2h-25v30.3h5.2V30.3h15.7l8.2,11.7h5.7L216.5,30.3z M195,26.1
	V15.9h19.2c0,0,5.2,0,5.2,5c0,5.3-4.7,5.2-4.7,5.2H195z"/>
<polygon class="st0" points="227.5,11.6 260.8,11.6 260.8,16.6 247,16.6 247,41.9 241.5,41.9 241.5,16.6 227.5,16.6 "/>
<g>
	<path d="M10.9,56.7c-0.8,0-1.4,0.3-1.9,0.9c-0.4,0.6-0.7,1.4-0.7,2.5c0,2.2,0.8,3.3,2.5,3.3c0.7,0,1.6-0.2,2.5-0.5v1.8
		c-0.8,0.3-1.7,0.5-2.7,0.5c-1.5,0-2.6-0.4-3.3-1.3c-0.8-0.9-1.2-2.1-1.2-3.8c0-1,0.2-1.9,0.6-2.7c0.4-0.8,0.9-1.4,1.6-1.8
		C9.2,55.2,10,55,10.9,55c1,0,1.9,0.2,2.9,0.7l-0.7,1.7c-0.4-0.2-0.7-0.3-1.1-0.5S11.3,56.7,10.9,56.7z"/>
	<path d="M29.6,60.1c0,1.7-0.4,2.9-1.2,3.8s-2,1.3-3.5,1.3s-2.7-0.4-3.5-1.3s-1.2-2.2-1.2-3.8s0.4-2.9,1.2-3.8
		c0.8-0.9,2-1.3,3.5-1.3s2.7,0.4,3.5,1.3S29.6,58.4,29.6,60.1z M22.3,60.1c0,1.1,0.2,2,0.6,2.5s1.1,0.8,1.9,0.8
		c1.7,0,2.5-1.1,2.5-3.4c0-2.3-0.8-3.4-2.5-3.4c-0.8,0-1.5,0.3-1.9,0.9C22.5,58.1,22.3,59,22.3,60.1z"/>
	<path d="M45.6,60.1c0,1.7-0.4,2.9-1.2,3.8s-2,1.3-3.5,1.3s-2.7-0.4-3.5-1.3s-1.2-2.2-1.2-3.8s0.4-2.9,1.2-3.8
		c0.8-0.9,2-1.3,3.5-1.3s2.7,0.4,3.5,1.3S45.6,58.4,45.6,60.1z M38.3,60.1c0,1.1,0.2,2,0.6,2.5s1.1,0.8,1.9,0.8
		c1.7,0,2.5-1.1,2.5-3.4c0-2.3-0.8-3.4-2.5-3.4c-0.8,0-1.5,0.3-1.9,0.9C38.5,58.1,38.3,59,38.3,60.1z"/>
	<path d="M59.5,58.2c0,1.1-0.3,1.9-1,2.5s-1.6,0.9-2.9,0.9h-0.9v3.6h-2.1v-10h3.2c1.2,0,2.1,0.3,2.8,0.8
		C59.2,56.4,59.5,57.2,59.5,58.2z M54.7,59.8h0.7c0.7,0,1.1-0.1,1.5-0.4c0.3-0.3,0.5-0.6,0.5-1.1c0-0.5-0.1-0.9-0.4-1.1
		s-0.7-0.4-1.3-0.4h-1V59.8z"/>
	<path d="M72,65.1h-5.8v-10H72v1.7h-3.6V59h3.4v1.7h-3.4v2.6H72V65.1z"/>
	<path d="M81.2,61.3v3.8H79v-10h2.9c1.4,0,2.4,0.2,3,0.7c0.7,0.5,1,1.2,1,2.3c0,0.6-0.2,1.1-0.5,1.6c-0.3,0.5-0.8,0.8-1.4,1.1
		c1.5,2.2,2.5,3.7,2.9,4.4h-2.4l-2.4-3.8H81.2z M81.2,59.5h0.7c0.7,0,1.2-0.1,1.5-0.3s0.5-0.6,0.5-1.1c0-0.5-0.2-0.8-0.5-1
		s-0.8-0.3-1.5-0.3h-0.6V59.5z"/>
	<path d="M99.3,65.1l-0.7-2.4h-3.6l-0.7,2.4h-2.3l3.5-10H98l3.5,10H99.3z M98.1,60.9c-0.7-2.2-1-3.4-1.1-3.7s-0.1-0.5-0.2-0.7
		c-0.2,0.6-0.6,2-1.3,4.3H98.1z"/>
	<path d="M111.6,65.1h-2.1v-8.2h-2.7v-1.8h7.5v1.8h-2.7V65.1z"/>
	<path d="M120.7,65.1v-10h2.1v10H120.7z"/>
	<path d="M136,55.1h2.1l-3.4,10h-2.3l-3.4-10h2.1L133,61c0.1,0.4,0.2,0.8,0.3,1.2c0.1,0.5,0.2,0.8,0.2,1c0-0.4,0.2-1.2,0.5-2.2
		L136,55.1z"/>
	<path d="M150,65.1h-5.8v-10h5.8v1.7h-3.6V59h3.4v1.7h-3.4v2.6h3.6V65.1z"/>
	<path d="M177.9,59.5h4v5.2c-0.6,0.2-1.2,0.4-1.8,0.4c-0.6,0.1-1.1,0.1-1.7,0.1c-1.5,0-2.7-0.4-3.5-1.3c-0.8-0.9-1.2-2.2-1.2-3.8
		c0-1.6,0.5-2.9,1.4-3.8c0.9-0.9,2.2-1.4,3.8-1.4c1,0,2,0.2,3,0.6l-0.7,1.7c-0.7-0.4-1.5-0.5-2.3-0.5c-0.9,0-1.6,0.3-2.2,0.9
		s-0.8,1.4-0.8,2.5c0,1.1,0.2,1.9,0.7,2.5c0.4,0.6,1.1,0.9,1.9,0.9c0.4,0,0.9,0,1.3-0.1v-2.1h-1.9V59.5z"/>
	<path d="M195.2,65.1l-0.7-2.4h-3.6l-0.7,2.4h-2.3l3.5-10h2.6l3.5,10H195.2z M194,60.9c-0.7-2.2-1-3.4-1.1-3.7
		c-0.1-0.3-0.1-0.5-0.2-0.7c-0.2,0.6-0.6,2-1.3,4.3H194z"/>
	<path d="M203.7,65.1v-10h2.1v8.2h4.1v1.8H203.7z"/>
	<path d="M216.5,65.1v-10h2.1v8.2h4.1v1.8H216.5z"/>
	<path d="M235.1,65.1h-5.8v-10h5.8v1.7h-3.6V59h3.4v1.7h-3.4v2.6h3.6V65.1z"/>
	<path d="M244.2,61.3v3.8H242v-10h2.9c1.4,0,2.4,0.2,3,0.7c0.7,0.5,1,1.2,1,2.3c0,0.6-0.2,1.1-0.5,1.6c-0.3,0.5-0.8,0.8-1.4,1.1
		c1.5,2.2,2.5,3.7,2.9,4.4h-2.4l-2.4-3.8H244.2z M244.2,59.5h0.7c0.7,0,1.2-0.1,1.5-0.3s0.5-0.6,0.5-1.1c0-0.5-0.2-0.8-0.5-1
		c-0.3-0.2-0.8-0.3-1.5-0.3h-0.6V59.5z"/>
	<path d="M259.3,59.2l2.1-4.1h2.3l-3.3,6.1v3.9h-2.1v-3.8l-3.3-6.2h2.3L259.3,59.2z"/>
</g>
</svg>
